# xmcd
#
# Track frame offsets: 
#        150
#        10927
#        22887
#        38295
#        48440
#        63235
#        79037
#        87732
#        97202
#        106595
#        117345
#        127855
#        141160
#        151745
#        169575
#        178500
#
# Disc length: 2599 seconds
#
# Revision: 0
# Processed by: cddbd v1.4PL0 Copyright (c) Steve Scherf et al.
# Submitted via: ExactAudioCopy v0.90b3
#
DISCID=ba0a2510
DTITLE=Red Sovine - 16 Gospel Super Hits
DYEAR=1900
DGENRE=Country
TTITLE0=I'm Singing Hallelujah
TTITLE1=Cast Thy Bread Upon The Water
TTITLE2=Except The Lord
TTITLE3=The Church Around The Corner
TTITLE4=If You Should Visit Heaven
TTITLE5=The Treasure I Lost
TTITLE6=Sing With All Your Heart
TTITLE7=There'll Come A Payday
TTITLE8=Happy, Happy Goodbye
TTITLE9=I'm Another World Millionaire
TTITLE10=Lay Your Hand On Me
TTITLE11=No One's Too Big To Cry
TTITLE12=He's Standing By
TTITLE13=Cheyenne
TTITLE14=Oh No, No
TTITLE15=Your Robe Won't Fit
EXTD=
EXTT0=
EXTT1=
EXTT2=
EXTT3=
EXTT4=
EXTT5=
EXTT6=
EXTT7=
EXTT8=
EXTT9=
EXTT10=
EXTT11=
EXTT12=
EXTT13=
EXTT14=
EXTT15=
PLAYORDER=
